<svg width="800" height="150" viewBox="0 0 800 150" fill="none" xmlns="http://www.w3.org/2000/svg">
<rect width="800" height="150" rx="8" fill="#0D1117"/>
<path d="M375.478 84.3421V65.2424H381.836C383.109 65.2424 384.217 65.4866 385.159 65.975C386.118 66.4634 386.859 67.1524 387.383 68.042C387.906 68.9141 388.168 69.9432 388.168 71.1293C388.168 72.298 387.897 73.3271 387.356 74.2167C386.833 75.1062 386.101 75.7952 385.159 76.2836C384.217 76.772 383.109 77.0162 381.836 77.0162H378.749V84.3421H375.478ZM378.749 74.0597H381.836C382.743 74.0597 383.467 73.798 384.007 73.2748C384.566 72.734 384.845 72.0189 384.845 71.1293C384.845 70.2223 384.566 69.5072 384.007 68.9839C383.467 68.4606 382.743 68.199 381.836 68.199H378.749V74.0597Z" fill="white"/>
<path d="M391.506 84.3421V81.4641H395.352V68.1205H391.506V65.2424H402.495V68.1205H398.649V81.4641H402.495V84.3421H391.506Z" fill="white"/>
<path d="M406.828 84.3421V65.2424H410.099V72.9608H412.375L415.959 65.2424H419.518L415.253 74.3998L419.727 84.3421H416.09L412.323 75.9435H410.099V84.3421H406.828Z" fill="white"/>
<path d="M422.516 84.3421V65.2424H425.787V72.9608H428.063L431.647 65.2424H435.206L430.941 74.3998L435.415 84.3421H431.778L428.011 75.9435H425.787V84.3421H422.516Z" fill="white"/>
<path d="M444.065 84.6037C442.199 84.6037 440.734 84.0979 439.67 83.0862C438.623 82.0571 438.1 80.6617 438.1 78.9V65.2424H441.396V78.8738C441.396 79.7809 441.623 80.4873 442.077 80.9931C442.53 81.499 443.193 81.7519 444.065 81.7519C444.92 81.7519 445.574 81.499 446.027 80.9931C446.498 80.4873 446.734 79.7809 446.734 78.8738V65.2424H450.031V78.9C450.031 80.6617 449.507 82.0571 448.461 83.0862C447.414 84.0979 445.949 84.6037 444.065 84.6037Z" fill="white"/>
<g clip-path="url(#clip0_46_5)">
<path fill-rule="evenodd" clip-rule="evenodd" d="M339.712 56.8628C338.375 56.1657 336.565 56.1557 335.216 56.8508C330.052 59.5197 325.368 62.5769 321.263 65.9687C320.628 66.4925 320.177 67.2553 320.185 68.1516C320.193 69.0458 320.651 69.7967 321.283 70.3125C325.354 73.6406 330.042 76.7018 335.111 79.3487C336.449 80.0458 338.258 80.0558 339.606 79.3607C344.771 76.6918 349.455 73.6346 353.56 70.2428C354.195 69.719 354.645 68.9562 354.637 68.06C354.629 67.1657 354.169 66.4148 353.54 65.899C349.469 62.5709 344.78 59.5097 339.712 56.8628ZM336.585 59.5057C336.86 59.3836 337.157 59.321 337.458 59.322C337.758 59.323 338.056 59.3877 338.329 59.5117C343.167 62.0371 347.625 64.943 351.486 68.0799C347.603 71.2685 343.157 74.1644 338.236 76.7058C337.758 76.9528 336.975 76.9508 336.493 76.6998C331.655 74.1744 327.198 71.2685 323.334 68.1317C327.22 64.943 331.663 62.0471 336.585 59.5057Z" fill="white"/>
<path d="M355.729 82.9397C355.938 83.2757 356.006 83.6812 355.917 84.067C355.827 84.4527 355.589 84.7873 355.253 84.9971L344.721 91.5776C342.614 92.8921 339.981 93.5115 337.411 93.5115C334.846 93.5115 332.213 92.8941 330.104 91.5796L319.703 85.0867C319.367 84.8768 319.128 84.5418 319.039 84.1556C318.95 83.7694 319.017 83.3636 319.227 83.0274C319.437 82.6911 319.772 82.4521 320.158 82.3628C320.545 82.2736 320.951 82.3414 321.287 82.5513L331.687 89.0442C333.227 90.0062 335.286 90.524 337.413 90.524C339.54 90.524 341.6 90.0062 343.139 89.0442L353.671 82.4657C353.838 82.3616 354.023 82.2914 354.217 82.259C354.41 82.2266 354.608 82.2326 354.8 82.2769C354.991 82.3211 355.172 82.4025 355.331 82.5166C355.491 82.6307 355.627 82.7751 355.731 82.9417" fill="white" fill-opacity="0.25"/>
<path d="M355.729 75.461C355.938 75.797 356.006 76.2024 355.917 76.5882C355.827 76.974 355.589 77.3086 355.253 77.5184L343.09 85.1126C341.438 86.1443 339.391 86.6203 337.411 86.6203C335.432 86.6203 333.384 86.1423 331.733 85.1146L319.703 77.606C319.367 77.3963 319.128 77.0616 319.039 76.6756C318.949 76.2896 319.017 75.8838 319.226 75.5476C319.436 75.2114 319.771 74.9723 320.157 74.8828C320.543 74.7934 320.949 74.8609 321.285 75.0706L333.314 82.5792C334.398 83.2564 335.87 83.6328 337.411 83.6328C338.951 83.6328 340.423 83.2544 341.506 82.5772L353.671 74.985C354.007 74.7754 354.413 74.7078 354.799 74.7971C355.184 74.8864 355.519 75.1252 355.729 75.461Z" fill="white" fill-opacity="0.5"/>
</g>
<defs>
<clipPath id="clip0_46_5">
<rect width="36.955" height="91.2383" fill="white" transform="translate(319 29.304)"/>
</clipPath>
</defs>
</svg>
